<?xml version="1.0" encoding="UTF-8"?>
<svg version="1.1" xmlns="http://www.w3.org/2000/svg" width="241" height="150">
<path d="M0 0 C1.26442932 -0.00511093 2.52885864 -0.01022186 3.831604 -0.01548767 C7.28000147 -0.02880719 10.72828887 -0.02946432 14.17670703 -0.02692437 C17.0642204 -0.02584998 19.95171192 -0.03074989 22.83922058 -0.03552979 C29.65536311 -0.04660034 36.47145051 -0.04707606 43.28759766 -0.04101562 C50.30065145 -0.03497567 57.31350462 -0.04729293 64.3265242 -0.06858569 C70.36585493 -0.08624252 76.40512204 -0.09219669 82.44447762 -0.08894795 C86.04354539 -0.08714164 89.64246999 -0.08970582 93.24151421 -0.10366249 C97.25749471 -0.11865533 101.27307067 -0.10923519 105.2890625 -0.09765625 C106.4690834 -0.10529999 107.64910431 -0.11294373 108.86488342 -0.12081909 C118.14739112 -0.06179227 125.79630934 1.37801795 133.20922852 7.2746582 C140.16934839 14.72036784 141.65722943 20.40727577 141.62915039 30.29370117 C141.63761993 31.39363403 141.64608948 32.49356689 141.65481567 33.62683105 C141.67818319 37.25695409 141.67920781 40.88665319 141.67797852 44.5168457 C141.6850804 47.04501515 141.69277943 49.57318298 141.7010498 52.10134888 C141.71449424 57.39891671 141.71624514 62.69632856 141.71020508 67.99389648 C141.70356769 74.10277717 141.72642193 80.21105354 141.76351881 86.3198117 C141.79800023 92.21340795 141.80454588 98.10681901 141.8004303 104.00052261 C141.80212161 106.50032475 141.81176512 109.00013485 141.82957458 111.49987411 C141.85176245 114.99934261 141.84206114 118.49736171 141.82446289 121.99682617 C141.83772614 123.02462189 141.85098938 124.0524176 141.86465454 125.11135864 C141.77570049 132.74222531 139.78008658 137.57177806 134.48311615 143.06458855 C126.70420472 150.53056612 118.05839394 150.71872869 107.79174805 150.69458008 C106.44719747 150.70193109 105.10265318 150.7105203 103.75811768 150.72024536 C100.12574795 150.74236177 96.49360573 150.74539705 92.86117792 150.74349785 C89.81965708 150.74337769 86.77818365 150.75196029 83.7366761 150.76027536 C76.55610765 150.77947389 69.37565543 150.78240625 62.19506836 150.77563477 C54.80814393 150.76899643 47.42171915 150.79185775 40.03489602 150.8289485 C33.67366779 150.85972061 27.31259968 150.87099743 20.95129859 150.86711168 C17.16039382 150.86505191 13.36987805 150.87040279 9.57904434 150.89500427 C6.01154763 150.91739403 2.44485907 150.91529398 -1.12264252 150.89507675 C-3.0410497 150.89008375 -4.95947281 150.9095968 -6.8777771 150.93008423 C-15.1455842 150.85042367 -22.11745821 149.47169345 -28.43656731 143.79659271 C-31.02648125 140.8858947 -32.42883162 137.87407069 -33.79077148 134.2746582 C-32.56905243 134.27101257 -31.34733337 134.26736694 -30.08859253 134.26361084 C-18.52590679 134.22652959 -6.96348415 134.16861428 4.59900093 134.09075546 C10.54216679 134.05139298 16.48518696 134.01914955 22.4284668 134.00366211 C28.17342007 133.98842145 33.91797251 133.95384513 39.66274643 133.90634918 C41.84493381 133.8916115 44.02717845 133.88362161 46.20941544 133.88277435 C67.27437495 133.86638378 84.78987184 130.80123816 100.40454102 115.4074707 C111.72482519 103.39551947 115.79122879 87.70834259 115.48266602 71.57543945 C114.80696536 56.71336999 108.08889998 42.42901824 97.20922852 32.2746582 C85.57401698 22.7349822 72.9800806 17.99108114 58.02954102 17.95581055 C57.04326218 17.94576492 56.05698334 17.9357193 55.04081726 17.92536926 C51.8052932 17.89466446 48.5698514 17.87753748 45.33422852 17.8605957 C43.08121031 17.84187384 40.82819904 17.82229968 38.57519531 17.8019104 C32.66355487 17.75069086 26.75189173 17.71101066 20.84014893 17.67376709 C14.80035837 17.63366359 8.76066145 17.58260022 2.72094727 17.5324707 C-9.11622645 17.43583192 -20.95345315 17.35138864 -32.79077148 17.2746582 C-32.79077148 13.33070149 -31.27757232 11.17359738 -28.79077148 8.2746582 C-20.19375899 0.22922394 -11.29838016 -0.02367997 0 0 Z " fill="#183C69" transform="translate(99.790771484375,-0.274658203125)"/>
<path d="M0 0 C-1.65 4.29 -3.3 8.58 -5 13 C-3.02 12.938125 -1.04 12.87625 1 12.8125 C6.7811462 12.8125 10.86788911 13.33525012 16 16 C17.39195915 20.17587745 15.82323219 22.13474776 14 26 C13.38253906 25.7834375 12.76507813 25.566875 12.12890625 25.34375 C5.31633925 23.10400195 -1.04068404 21.68022801 -8 24 C-8.33 25.98 -8.66 27.96 -9 30 C-2.96642561 32.75174646 3.01382843 34.32575494 9.4765625 35.83984375 C13.85341997 37.28100414 16.70203638 39.06878747 19.2890625 42.91796875 C21.1880422 48.47926643 20.67888774 54.33106763 18.5 59.6875 C17.375 61.3203125 17.375 61.3203125 16 63 C15.46375 63.65742187 14.9275 64.31484375 14.375 64.9921875 C6.07198609 74.1600987 -6.07433817 79.28264282 -18.3484993 80.16973305 C-25.16086255 80.43756377 -31.97691174 80.3696736 -38.79296875 80.328125 C-40.99302542 80.32506303 -43.19308403 80.32319024 -45.3931427 80.32244873 C-49.9780736 80.31786945 -54.56282652 80.30352617 -59.14770508 80.28125 C-65.03703659 80.25278527 -70.92622949 80.24201755 -76.81562328 80.2375679 C-81.34588515 80.2334245 -85.87611882 80.2236191 -90.40636635 80.21169281 C-92.57979418 80.20598349 -94.75322472 80.20122698 -96.92665672 80.19742584 C-99.94749172 80.19059245 -102.96821424 80.17697898 -105.98901367 80.16113281 C-106.89228897 80.16001495 -107.79556427 80.15889709 -108.72621155 80.15774536 C-114.8852997 80.1147003 -114.8852997 80.1147003 -116 79 C-116.07205511 77.31391034 -116.08386068 75.62499341 -116.0625 73.9375 C-116.05347656 73.01839844 -116.04445313 72.09929687 -116.03515625 71.15234375 C-116.02355469 70.44207031 -116.01195312 69.73179688 -116 69 C-117.12148437 69.05220703 -117.12148437 69.05220703 -118.265625 69.10546875 C-119.25046875 69.13253906 -120.2353125 69.15960938 -121.25 69.1875 C-122.22453125 69.22230469 -123.1990625 69.25710937 -124.203125 69.29296875 C-127.42027204 68.95597709 -128.73357995 68.2770356 -131 66 C-131.4375 63 -131.4375 63 -131 60 C-129.45493534 57.96332385 -128.27853844 57.13926922 -126 56 C-124.66856864 55.89619498 -123.33223902 55.85141627 -121.99682617 55.83886719 C-121.17224411 55.82925964 -120.34766205 55.8196521 -119.49809265 55.80975342 C-118.60540176 55.80550354 -117.71271088 55.80125366 -116.79296875 55.796875 C-115.87542313 55.79117493 -114.9578775 55.78547485 -114.01252747 55.77960205 C-112.06817785 55.77014567 -110.12381216 55.76361554 -108.17944336 55.75976562 C-105.20983746 55.75007291 -102.24092737 55.71906097 -99.27148438 55.6875 C-97.38281661 55.68096866 -95.4941439 55.67571871 -93.60546875 55.671875 C-92.71885056 55.6595282 -91.83223236 55.6471814 -90.91874695 55.63446045 C-86.11834223 55.65173362 -82.89075292 55.86155784 -79 59 C-77.515625 61.04296875 -77.515625 61.04296875 -76.25 63.1875 C-74.08629212 66.29964314 -74.08629212 66.29964314 -70.6171875 67.51953125 C-68.36019027 67.50184318 -66.22724843 67.35635975 -64 67 C-64.5053125 66.44570312 -65.010625 65.89140625 -65.53125 65.3203125 C-66.1809375 64.59585938 -66.830625 63.87140625 -67.5 63.125 C-68.1496875 62.40570313 -68.799375 61.68640625 -69.46875 60.9453125 C-71 59 -71 59 -71 57 C-66.96172765 56.71427318 -63.03098209 56.56656107 -59 57 C-56.75 59.1875 -56.75 59.1875 -55 62 C-48.48721945 68.25272358 -40.71855377 67.70860602 -32.1875 67.6875 C-29.57640575 67.69923169 -26.96647797 67.72839806 -24.35546875 67.76171875 C-23.20715576 67.76131592 -22.05884277 67.76091309 -20.87573242 67.76049805 C-18 68 -18 68 -15 70 C-12.82641491 69.88187178 -12.82641491 69.88187178 -10.5625 69.25 C-9.80066406 69.06953125 -9.03882813 68.8890625 -8.25390625 68.703125 C-6.0168822 68.00526654 -4.06077862 67.10784454 -2 66 C-3.66289062 65.52820313 -3.66289062 65.52820313 -5.359375 65.046875 C-6.82311608 64.61525904 -8.28664695 64.18292971 -9.75 63.75 C-10.47960937 63.54503906 -11.20921875 63.34007813 -11.9609375 63.12890625 C-16.29176551 61.82965785 -19.05555908 60.62631145 -22 57 C-21.01 54.69 -20.02 52.38 -19 50 C-16.24603974 50.62342397 -14.06945153 51.40813529 -11.4375 52.5625 C-6.42934358 54.48292088 -1.29900437 54.65916533 4 54 C4.99 53.34 5.98 52.68 7 52 C6.67 50.35 6.34 48.7 6 47 C5.39003174 46.80889648 4.78006348 46.61779297 4.15161133 46.42089844 C1.36821086 45.54184635 -1.40954784 44.6461136 -4.1875 43.75 C-5.14720703 43.44964844 -6.10691406 43.14929688 -7.09570312 42.83984375 C-12.8360095 40.97275448 -17.56413536 39.24781952 -21.3125 34.25 C-23.42376329 27.34041104 -21.51844496 21.73165327 -18.6875 15.4375 C-18.37876953 14.72142578 -18.07003906 14.00535156 -17.75195312 13.26757812 C-17.14098549 11.85399197 -16.52122865 10.4441672 -15.89208984 9.03857422 C-15.30102644 7.68789568 -14.73824571 6.32445836 -14.20556641 4.94970703 C-13.54784117 3.26742351 -12.78170554 1.62837857 -12 0 C-7.73499324 -1.42166892 -4.44646526 -0.57997373 0 0 Z " fill="#184E7A" transform="translate(179,47)"/>
<path d="M0 0 C1.93243057 -0.01925285 1.93243057 -0.01925285 3.90390015 -0.03889465 C5.31695167 -0.04706135 6.73000752 -0.05450522 8.14306641 -0.0612793 C8.85335621 -0.06535482 9.56364601 -0.06943035 10.29545975 -0.07362938 C14.05422932 -0.09448774 17.81296241 -0.10879098 21.57177734 -0.11816406 C25.45473806 -0.12923415 29.33712657 -0.16364071 33.21988487 -0.20333576 C36.20532297 -0.22947422 39.19062407 -0.23785332 42.17616653 -0.24144554 C43.60751845 -0.24631798 45.03886399 -0.25795083 46.47010422 -0.27648354 C48.47341886 -0.30081339 50.47701149 -0.29749624 52.48046875 -0.29296875 C53.62027191 -0.29883499 54.76007507 -0.30470123 55.93441772 -0.31074524 C59.52683673 0.28621088 60.69890895 1.30115828 62.86962891 4.17700195 C63.36962891 7.23950195 63.36962891 7.23950195 62.86962891 10.17700195 C60.41612883 12.80491962 58.89960216 13.17337708 55.29443359 13.609375 C53.87714329 13.65060652 52.45933847 13.67619088 51.04150391 13.6887207 C49.9179953 13.71564751 49.9179953 13.71564751 48.77178955 13.74311829 C46.38779266 13.79714738 44.00399511 13.83109198 41.61962891 13.86450195 C39.99980955 13.89768171 38.38001646 13.93217198 36.76025391 13.96801758 C32.79685625 14.05286911 28.83351694 14.11971485 24.86962891 14.17700195 C24.20962891 16.15700195 23.54962891 18.13700195 22.86962891 20.17700195 C27.81962891 20.17700195 32.76962891 20.17700195 37.86962891 20.17700195 C38.86962891 22.17700195 38.86962891 22.17700195 38.45166016 23.8215332 C36.39291101 32.15324954 36.81340483 42.05504337 40.99462891 49.57543945 C41.86962891 51.17700195 41.86962891 51.17700195 41.86962891 53.17700195 C25.36962891 53.17700195 8.86962891 53.17700195 -8.13037109 53.17700195 C-8.13037109 46.57700195 -8.13037109 39.97700195 -8.13037109 33.17700195 C-9.90025391 33.20020508 -11.67013672 33.2234082 -13.49365234 33.24731445 C-15.81005439 33.26607074 -18.12646098 33.28427109 -20.44287109 33.30200195 C-21.61011719 33.31875977 -22.77736328 33.33551758 -23.97998047 33.3527832 C-25.65737305 33.36245117 -25.65737305 33.36245117 -27.36865234 33.37231445 C-28.91613159 33.3880249 -28.91613159 33.3880249 -30.49487305 33.40405273 C-33.13037109 33.17700195 -33.13037109 33.17700195 -36.13037109 31.17700195 C-37.06787109 28.30200195 -37.06787109 28.30200195 -37.13037109 25.17700195 C-35.07044337 22.47327032 -33.83393574 21.3215417 -30.47314453 20.63110352 C-29.48862305 20.61015625 -28.50410156 20.58920898 -27.48974609 20.56762695 C-26.41982422 20.53540039 -25.34990234 20.50317383 -24.24755859 20.4699707 C-23.13638672 20.45579102 -22.02521484 20.44161133 -20.88037109 20.42700195 C-19.75373047 20.39735352 -18.62708984 20.36770508 -17.46630859 20.3371582 C-14.68804771 20.26652445 -11.90920489 20.21949177 -9.13037109 20.17700195 C-8.80037109 13.90700195 -8.47037109 7.63700195 -8.13037109 1.17700195 C-5.36335765 -0.20650477 -3.09647139 0.02678087 0 0 Z M20.86962891 33.17700195 C20.79814692 34.52944113 20.78563436 35.88534562 20.80712891 37.23950195 C20.82775391 38.53887695 20.84837891 39.83825195 20.86962891 41.17700195 C23.50962891 41.17700195 26.14962891 41.17700195 28.86962891 41.17700195 C28.53962891 38.20700195 28.20962891 35.23700195 27.86962891 32.17700195 C24.06341846 31.73852836 24.06341846 31.73852836 20.86962891 33.17700195 Z " fill="#2198CF" transform="translate(71.13037109375,42.822998046875)"/>
<path d="M0 0 C0.99407364 -0.00686325 1.98814728 -0.0137265 3.01234436 -0.02079773 C6.30467967 -0.03912247 9.59654053 -0.035217 12.88891602 -0.02954102 C15.18376317 -0.03410303 17.47860896 -0.03940866 19.77345276 -0.04542542 C24.5912123 -0.05436987 29.40880624 -0.05192158 34.2265625 -0.04199219 C40.37296479 -0.03055391 46.51878817 -0.0506284 52.6651144 -0.07990932 C57.41036057 -0.09835093 62.15547043 -0.09796212 66.90074348 -0.0922718 C69.16474273 -0.09211928 71.42875162 -0.09810635 73.6927166 -0.11056328 C93.20141431 -0.20270738 108.20221935 1.71716835 123.01782227 15.71655273 C133.68048452 26.95145089 137.50978006 39.74698182 137.43969727 54.98999023 C137.09386137 60.02766641 135.81095809 64.63493205 134.20532227 69.40405273 C133.21532227 69.40405273 132.22532227 69.40405273 131.20532227 69.40405273 C127.72529299 63.39556469 126.75868979 59.50785799 127.20532227 52.65405273 C127.55329562 41.28770169 125.13191627 31.88110466 117.20532227 23.40405273 C109.08100745 15.03460773 100.52629712 11.24700765 89.08813477 9.37280273 C86.1948608 9.08433419 86.1948608 9.08433419 84.5841217 10.88174438 C80.95042422 13.20712244 77.49019791 12.82242741 73.26171875 12.79223633 C72.35887146 12.79749329 71.45602417 12.80275024 70.52581787 12.8081665 C67.54250778 12.82136692 64.5597315 12.81262894 61.57641602 12.80249023 C59.50423581 12.80451078 57.43205631 12.80742205 55.35987854 12.81118774 C51.01800768 12.81561101 46.676322 12.80917921 42.33447266 12.79516602 C36.76334893 12.77806356 31.19265843 12.78792214 25.62155056 12.80588341 C21.34337587 12.81671202 17.0653043 12.81327932 12.78712654 12.80550003 C10.73257458 12.80349602 8.67801331 12.8059643 6.62347221 12.81293869 C3.75523868 12.82053909 0.887712 12.8089692 -1.98046875 12.79223633 C-2.83301743 12.79830902 -3.6855661 12.80438171 -4.56394958 12.81063843 C-10.35357758 12.74791628 -10.35357758 12.74791628 -12.5088644 11.0677433 C-13.79467773 9.40405273 -13.79467773 9.40405273 -14.23217773 6.40405273 C-13.79467773 3.40405273 -13.79467773 3.40405273 -12.37950134 1.74180603 C-8.35936863 -0.33877918 -4.46298946 -0.02142626 0 0 Z " fill="#11A3E1" transform="translate(71.794677734375,23.595947265625)"/>
<path d="M0 0 C-1.65 4.29 -3.3 8.58 -5 13 C-3.02 12.938125 -1.04 12.87625 1 12.8125 C6.7811462 12.8125 10.86788911 13.33525012 16 16 C17.39195915 20.17587745 15.82323219 22.13474776 14 26 C13.38253906 25.7834375 12.76507813 25.566875 12.12890625 25.34375 C5.31633925 23.10400195 -1.04068404 21.68022801 -8 24 C-8.33 25.98 -8.66 27.96 -9 30 C-2.96642561 32.75174646 3.01382843 34.32575494 9.4765625 35.83984375 C13.8537521 37.2811135 16.6898121 39.07418164 19.296875 42.90625 C20.17533228 45.52210056 20.26515 47.74269952 20.25 50.5 C20.25773437 51.90765625 20.25773437 51.90765625 20.265625 53.34375 C19.98690082 56.13099183 19.59462392 57.70615613 18 60 C15.98324913 61.18777965 13.9442922 61.99724873 11.77734375 62.875 C9.7962049 63.8524781 9.7962049 63.8524781 9.41796875 66.046875 C9.28003906 66.69140625 9.14210937 67.3359375 9 68 C4.64899976 70.07190488 0.76376184 70.19055047 -4 70 C-3.34 68.68 -2.68 67.36 -2 66 C-3.66289062 65.52820313 -3.66289062 65.52820313 -5.359375 65.046875 C-6.82311608 64.61525904 -8.28664695 64.18292971 -9.75 63.75 C-10.47960937 63.54503906 -11.20921875 63.34007813 -11.9609375 63.12890625 C-16.29176551 61.82965785 -19.05555908 60.62631145 -22 57 C-21.01 54.69 -20.02 52.38 -19 50 C-16.24603974 50.62342397 -14.06945153 51.40813529 -11.4375 52.5625 C-6.42934358 54.48292088 -1.29900437 54.65916533 4 54 C4.99 53.34 5.98 52.68 7 52 C6.505 49.525 6.505 49.525 6 47 C5.39003174 46.80889648 4.78006348 46.61779297 4.15161133 46.42089844 C1.36821086 45.54184635 -1.40954784 44.6461136 -4.1875 43.75 C-5.14720703 43.44964844 -6.10691406 43.14929688 -7.09570312 42.83984375 C-12.8360095 40.97275448 -17.56413536 39.24781952 -21.3125 34.25 C-23.42376329 27.34041104 -21.51844496 21.73165327 -18.6875 15.4375 C-18.37876953 14.72142578 -18.07003906 14.00535156 -17.75195312 13.26757812 C-17.14098549 11.85399197 -16.52122865 10.4441672 -15.89208984 9.03857422 C-15.30102644 7.68789568 -14.73824571 6.32445836 -14.20556641 4.94970703 C-13.54784117 3.26742351 -12.78170554 1.62837857 -12 0 C-7.73499324 -1.42166892 -4.44646526 -0.57997373 0 0 Z " fill="#08A6E6" transform="translate(179,47)"/>
<path d="M0 0 C4.29 0 8.58 0 13 0 C17.62 10.56 22.24 21.12 27 32 C28.65 28.04 30.3 24.08 32 20 C32.66 20 33.32 20 34 20 C34.68359375 21.69270833 35.3671875 23.38541667 36.05078125 25.078125 C36.92183578 27.12601742 36.92183578 27.12601742 38.80859375 28.69140625 C40 31 40 31 39.60083008 32.89306641 C38.74627116 35.21150836 37.78020124 37.44166131 36.75 39.6875 C36.41097656 40.47189453 36.07195312 41.25628906 35.72265625 42.06445312 C33.22538642 47.77461358 33.22538642 47.77461358 32 49 C30.14712498 49.07226502 28.29166122 49.0838122 26.4375 49.0625 C25.42558594 49.05347656 24.41367188 49.04445312 23.37109375 49.03515625 C22.19740234 49.01775391 22.19740234 49.01775391 21 49 C17.50771362 41.21751017 14.01801466 33.4338717 10.53205872 25.64854431 C8.81216627 21.80870861 7.08636842 17.97160954 5.35546875 14.13671875 C4.63273997 12.52867843 3.91007718 10.92060845 3.1875 9.3125 C2.85685547 8.58434082 2.52621094 7.85618164 2.18554688 7.10595703 C0 2.22673559 0 2.22673559 0 0 Z " fill="#193B63" transform="translate(120,60)"/>
<path d="M0 0 C14.95395088 -0.969986 27.08217683 3.42055472 38.47265625 13.1015625 C48.56088849 22.63401567 54.27748942 34.17623571 55.203125 48.04296875 C55.31464106 55.52383747 54.38766629 61.90806264 52 69 C51.01 69 50.02 69 49 69 C45.51997073 62.99151196 44.55336753 59.10380526 45 52.25 C45.34797335 40.88364895 42.926594 31.47705192 35 23 C27.07946798 14.84048641 18.72329481 10.80970294 7.46875 9.359375 C5 9 5 9 3 8 C2.1484375 6.15234375 2.1484375 6.15234375 1.375 3.9375 C1.11460937 3.20402344 0.85421875 2.47054688 0.5859375 1.71484375 C0.39257812 1.14894531 0.19921875 0.58304688 0 0 Z " fill="#1C3B62" transform="translate(154,24)"/>
<path d="M0 0 C2.37753296 -0.38768005 2.37753296 -0.38768005 5.39599609 -0.40405273 C7.08817764 -0.42307899 7.08817764 -0.42307899 8.81454468 -0.44248962 C10.03847931 -0.43955399 11.26241394 -0.43661835 12.5234375 -0.43359375 C14.40272446 -0.44145653 14.40272446 -0.44145653 16.31997681 -0.44947815 C18.97502843 -0.45591317 21.62922436 -0.45597444 24.28417969 -0.44604492 C27.68300167 -0.43457099 31.08078227 -0.45473408 34.47946739 -0.48396206 C37.72329604 -0.50675051 40.96704754 -0.49985588 44.2109375 -0.49609375 C45.43082367 -0.50732773 46.65070984 -0.51856171 47.90756226 -0.53013611 C49.60920029 -0.51606468 49.60920029 -0.51606468 51.34521484 -0.50170898 C52.34289886 -0.50154282 53.34058289 -0.50137665 54.36849976 -0.50120544 C57.73463838 0.13992199 58.92113812 1.32365296 61 4 C61.5 7.0625 61.5 7.0625 61 10 C58.63031654 12.47467173 57.22131873 12.97542586 53.78979492 13.35644531 C52.53271729 13.34709961 51.27563965 13.33775391 49.98046875 13.328125 C48.94911552 13.326063 48.94911552 13.326063 47.89692688 13.32395935 C45.660031 13.31493284 43.4241534 13.28347944 41.1875 13.25 C39.65104756 13.23606896 38.11458891 13.22280736 36.578125 13.21020508 C32.05151931 13.1659038 27.52597717 13.08581221 23 13 C21.74010254 12.97921387 20.48020508 12.95842773 19.18212891 12.93701172 C15.95364844 12.87577175 12.72741244 12.78976509 9.5 12.6875 C8.55278076 12.66526367 7.60556152 12.64302734 6.62963867 12.62011719 C5.77217041 12.5843457 4.91470215 12.54857422 4.03125 12.51171875 C3.29455078 12.48553467 2.55785156 12.45935059 1.79882812 12.43237305 C0 12 0 12 -2 9 C-2.33957563 4.92509248 -2.31332486 3.46998729 0 0 Z " fill="#06A3E8" transform="translate(73,43)"/>
<path d="M0 0 C1.21832016 0.01918991 2.43664032 0.03837982 3.69187927 0.05815125 C4.3635614 0.06600647 5.03524353 0.07386169 5.72727966 0.08195496 C7.95199163 0.11058039 10.17615716 0.15382167 12.40061951 0.19755554 C13.94235126 0.22118194 15.48409471 0.24405538 17.02584839 0.26620483 C20.2582511 0.31477022 23.49044127 0.37014395 26.72264099 0.43070984 C30.87455944 0.50829486 35.02654803 0.57263529 39.17875767 0.63236713 C42.36229365 0.6789975 45.54572821 0.73078153 48.72915459 0.784338 C50.26061535 0.80982442 51.79209644 0.83411694 53.32359505 0.85721779 C55.45950194 0.89057114 57.59518575 0.93041172 59.73094177 0.97221375 C61.55722862 1.00457878 61.55722862 1.00457878 63.42041016 1.03759766 C66.14671326 1.20927429 66.14671326 1.20927429 67.14671326 2.20927429 C67.05733523 3.73446705 66.9013418 5.25609358 66.70921326 6.77177429 C66.60737732 7.59806335 66.50554138 8.42435242 66.40061951 9.27568054 C66.27493591 10.23280945 66.27493591 10.23280945 66.14671326 11.20927429 C57.34976834 11.30196221 48.55299154 11.37303275 39.75566483 11.41652298 C35.67066956 11.43739641 31.58600841 11.46570892 27.50120544 11.5110321 C23.5589698 11.5544996 19.61705549 11.57841324 15.67459869 11.58878326 C14.17066641 11.59617311 12.66675169 11.61060396 11.16295624 11.63219452 C9.05591866 11.66124241 6.95020797 11.66523 4.84300232 11.66337585 C3.64387207 11.6722583 2.44474182 11.68114075 1.20927429 11.69029236 C-2.46033379 11.11392906 -3.67145867 10.17030854 -5.85328674 7.20927429 C-5.6440729 2.81578357 -4.68827276 0.34386133 0 0 Z " fill="#0DA4E4" transform="translate(95.85328674316406,115.79072570800781)"/>
<path d="M0 0 C1.14095627 0.00007553 2.28191254 0.00015106 3.45744324 0.00022888 C4.6887648 0.00539017 5.92008636 0.01055145 7.1887207 0.01586914 C8.44965042 0.01728409 9.71058014 0.01869904 11.00971985 0.02015686 C14.35851904 0.02480964 17.70725006 0.03379198 21.05603027 0.04486084 C24.47460339 0.05509852 27.89318355 0.05965953 31.31176758 0.06469727 C38.01686456 0.0757344 44.72192932 0.09247853 51.42700195 0.11352539 C51.5246582 6.26586914 51.5246582 6.26586914 51.42700195 8.11352539 C50.42700195 9.11352539 50.42700195 9.11352539 46.58837891 9.21118164 C44.86398799 9.20419802 43.13961356 9.19207609 41.4152832 9.17602539 C40.03556587 9.17034546 40.03556587 9.17034546 38.62797546 9.16455078 C34.68519609 9.14823242 30.74251964 9.12052261 26.79980469 9.09301758 C16.60045905 9.02789532 6.48332805 8.97781722 -3.68457031 9.87646484 C-8.26846719 10.25267682 -12.99142275 10.61410491 -17.57299805 10.11352539 C-19.57299805 8.11352539 -19.57299805 8.11352539 -19.69799805 5.48852539 C-19.65674805 4.70477539 -19.61549805 3.92102539 -19.57299805 3.11352539 C-15.91899832 0.77496557 -12.81982174 1.03631041 -8.57299805 1.11352539 C-5.44466916 0.07074909 -3.28110718 -0.00724306 0 0 Z " fill="#06A5E9" transform="translate(55.572998046875,64.886474609375)"/>
<path d="M0 0 C-0.08378906 0.61488281 -0.16757813 1.22976562 -0.25390625 1.86328125 C-0.35574219 2.67152344 -0.45757812 3.47976562 -0.5625 4.3125 C-0.66691406 5.11300781 -0.77132812 5.91351563 -0.87890625 6.73828125 C-1.14755178 9.16817116 -1.14755178 9.16817116 0 12 C7.59 12 15.18 12 23 12 C22.01 14.97 21.02 17.94 20 21 C10.1 21 0.2 21 -10 21 C-10 14.4 -10 7.8 -10 1 C-6.78548731 -0.60725635 -3.56387464 -0.05748185 0 0 Z " fill="#163D66" transform="translate(73,43)"/>
<path d="M0 0 C1.20970459 0.00523682 2.41940918 0.01047363 3.66577148 0.01586914 C4.97094727 0.0190918 6.27612305 0.02231445 7.62084961 0.02563477 C9.00952213 0.03399138 10.39819401 0.04245634 11.78686523 0.05102539 C13.17944179 0.05603873 14.57202005 0.06060193 15.96459961 0.06469727 C19.38456394 0.07653105 22.80444367 0.09301659 26.22436523 0.11352539 C26.08387006 1.59320863 25.93681697 3.07227055 25.78686523 4.55102539 C25.7056543 5.37473633 25.62444336 6.19844727 25.54077148 7.04711914 C25.22436523 9.11352539 25.22436523 9.11352539 24.22436523 10.11352539 C20.3990274 10.35096015 16.58017294 10.51020505 12.74975586 10.63110352 C11.94860352 10.66526367 11.14745117 10.69942383 10.32202148 10.73461914 C9.5847583 10.75967529 8.84749512 10.78473145 8.08789062 10.81054688 C5.98157254 10.96667241 5.98157254 10.96667241 4.22436523 13.11352539 C4.58713168 15.94310368 5.32131287 18.4043683 6.22436523 21.11352539 C2.92436523 21.11352539 -0.37563477 21.11352539 -3.77563477 21.11352539 C-3.80246913 17.80097213 -3.82239257 14.48863356 -3.83813477 11.17602539 C-3.84651367 10.23049805 -3.85489258 9.2849707 -3.86352539 8.31079102 C-3.86674805 7.41166992 -3.8699707 6.51254883 -3.87329102 5.58618164 C-3.87852783 4.75352783 -3.88376465 3.92087402 -3.88916016 3.06298828 C-3.70702924 -0.06457171 -3.16457297 0.12943323 0 0 Z " fill="#13416E" transform="translate(66.775634765625,74.886474609375)"/>
<path d="M0 0 C1.49756836 -0.04350586 1.49756836 -0.04350586 3.02539062 -0.08789062 C10.38323046 -0.15161609 10.38323046 -0.15161609 14.35546875 2.140625 C16.1875 4.3125 16.1875 4.3125 16.6875 7.375 C16.13000412 10.65028829 15.80600781 11.38826161 13.1875 13.3125 C10.59960938 13.68481445 10.59960938 13.68481445 7.53125 13.67578125 C5.87416016 13.67481445 5.87416016 13.67481445 4.18359375 13.67382812 C2.45302734 13.6496582 2.45302734 13.6496582 0.6875 13.625 C-0.46621094 13.62822266 -1.61992188 13.63144531 -2.80859375 13.63476562 C-11.4119224 13.57955173 -11.4119224 13.57955173 -14.8125 11.3125 C-15.6875 9 -15.6875 9 -15.8125 6.3125 C-12.26697641 -1.11621609 -7.43587619 0.07117941 0 0 Z " fill="#0AA5E9" transform="translate(38.8125,42.6875)"/>
<path d="M0 0 C1.11052734 -0.02900391 2.22105469 -0.05800781 3.36523438 -0.08789062 C4.42935547 -0.09626953 5.49347656 -0.10464844 6.58984375 -0.11328125 C7.56687256 -0.12786377 8.54390137 -0.14244629 9.55053711 -0.1574707 C12.0625 0.3125 12.0625 0.3125 13.87719727 2.17895508 C15.35694503 4.84250106 15.60098278 6.31238168 15.0625 9.3125 C10.51319537 13.66125524 5.03089601 13.08023931 -0.9375 13.3125 C-2.030625 13.36535156 -3.12375 13.41820313 -4.25 13.47265625 C-12.26418966 13.6985464 -12.26418966 13.6985464 -15.25390625 11.984375 C-16.9375 10.3125 -16.9375 10.3125 -17.375 7.3125 C-16.9375 4.3125 -16.9375 4.3125 -15.5625 2.5 C-10.96155116 -0.86223185 -5.4912572 0.04763959 0 0 Z " fill="#07A4E9" transform="translate(64.9375,102.6875)"/>
<path d="M0 0 C1.01900391 0.00322266 2.03800781 0.00644531 3.08789062 0.00976562 C4.10302734 -0.00634766 5.11816406 -0.02246094 6.1640625 -0.0390625 C7.62489258 -0.0400293 7.62489258 -0.0400293 9.11523438 -0.04101562 C10.45509399 -0.04548706 10.45509399 -0.04548706 11.82202148 -0.05004883 C14.61718767 0.39690812 15.49864784 1.05465257 17.15039062 3.32226562 C17.58789062 6.32226562 17.58789062 6.32226562 17.15039062 9.32226562 C12.83466513 13.48261277 8.25015657 12.80182162 2.58789062 12.75976562 C1.15026367 12.78973633 1.15026367 12.78973633 -0.31640625 12.8203125 C-1.69602539 12.8193457 -1.69602539 12.8193457 -3.10351562 12.81835938 C-3.94213135 12.8202124 -4.78074707 12.82206543 -5.64477539 12.82397461 C-7.84960938 12.32226562 -7.84960938 12.32226562 -9.65795898 10.48657227 C-11.33842167 7.43447194 -10.7774665 5.60545237 -9.84960938 2.32226562 C-6.86312374 -0.66422001 -4.08413445 0.02977169 0 0 Z " fill="#09A5EA" transform="translate(10.849609375,63.677734375)"/>
<path d="M0 0 C-1.65 4.29 -3.3 8.58 -5 13 C-3.02 12.938125 -1.04 12.87625 1 12.8125 C6.7811462 12.8125 10.86788911 13.33525012 16 16 C17.39195915 20.17587745 15.82323219 22.13474776 14 26 C13.38253906 25.79503906 12.76507813 25.59007813 12.12890625 25.37890625 C6.37289724 23.54784707 1.02021684 22.48550136 -5 22 C-5 21.34 -5 20.68 -5 20 C-0.38 20 4.24 20 9 20 C8.34 18.02 7.68 16.04 7 14 C2.38 14 -2.24 14 -7 14 C-6.01 15.485 -6.01 15.485 -5 17 C-6.32 17 -7.64 17 -9 17 C-9.33 17.33 -9.66 17.66 -10 18 C-10.7425 17.62875 -11.485 17.2575 -12.25 16.875 C-14.9351845 15.6883499 -14.9351845 15.6883499 -17.171875 16.9453125 C-17.77515625 17.29335937 -18.3784375 17.64140625 -19 18 C-17.52006835 13.25749174 -15.91407937 8.58642866 -14 4 C-13.5359375 2.88625 -13.5359375 2.88625 -13.0625 1.75 C-10.36056505 -2.70024581 -4.29876082 -0.56070793 0 0 Z " fill="#03A0E5" transform="translate(179,47)"/>
<path d="M0 0 C0.97195312 -0.020625 1.94390625 -0.04125 2.9453125 -0.0625 C3.87859375 -0.06765625 4.811875 -0.0728125 5.7734375 -0.078125 C6.63114746 -0.0874707 7.48885742 -0.09681641 8.37255859 -0.10644531 C11.1225279 0.32873301 11.99511786 1.02334229 13.625 3.25 C14.26643223 8.3814578 14.26643223 8.3814578 12.40039062 10.90820312 C8.90843772 13.54733585 4.33693545 12.76127694 0.125 12.75 C-0.83792969 12.77835938 -1.80085938 12.80671875 -2.79296875 12.8359375 C-5.41892335 12.84326234 -7.80289722 12.78108195 -10.375 12.25 C-12.578125 9.921875 -12.578125 9.921875 -13.375 7.25 C-11.39377302 -1.33531691 -7.86373416 0.04138807 0 0 Z " fill="#07A4E7" transform="translate(27.375,103.75)"/>
<path d="M0 0 C2.52197266 -0.34057617 2.52197266 -0.34057617 5.6640625 -0.29296875 C6.78554687 -0.28330078 7.90703125 -0.27363281 9.0625 -0.26367188 C10.238125 -0.23853516 11.41375 -0.21339844 12.625 -0.1875 C14.40003906 -0.16719727 14.40003906 -0.16719727 16.2109375 -0.14648438 C19.14107539 -0.11103916 22.07031459 -0.06162769 25 0 C24.34 1.32 23.68 2.64 23 4 C26.3 4 29.6 4 33 4 C33.66 5.65 34.32 7.3 35 9 C22.79 9 10.58 9 -2 9 C-2 3 -2 3 0 0 Z " fill="#07A3E9" transform="translate(74,86)"/>
<path d="M0 0 C2.37753296 -0.38768005 2.37753296 -0.38768005 5.39599609 -0.40405273 C7.08817764 -0.42307899 7.08817764 -0.42307899 8.81454468 -0.44248962 C10.03847931 -0.43955399 11.26241394 -0.43661835 12.5234375 -0.43359375 C14.40272446 -0.44145653 14.40272446 -0.44145653 16.31997681 -0.44947815 C18.97502843 -0.45591317 21.62922436 -0.45597444 24.28417969 -0.44604492 C27.68300167 -0.43457099 31.08078227 -0.45473408 34.47946739 -0.48396206 C37.72329604 -0.50675051 40.96704754 -0.49985588 44.2109375 -0.49609375 C45.43082367 -0.50732773 46.65070984 -0.51856171 47.90756226 -0.53013611 C49.60920029 -0.51606468 49.60920029 -0.51606468 51.34521484 -0.50170898 C52.34289886 -0.50154282 53.34058289 -0.50137665 54.36849976 -0.50120544 C57.73463838 0.13992199 58.92113812 1.32365296 61 4 C61.5 7.0625 61.5 7.0625 61 10 C58.63031654 12.47467173 57.22131873 12.97542586 53.78979492 13.35644531 C52.53271729 13.34709961 51.27563965 13.33775391 49.98046875 13.328125 C48.94911552 13.326063 48.94911552 13.326063 47.89692688 13.32395935 C45.660031 13.31493284 43.4241534 13.28347944 41.1875 13.25 C39.65104756 13.23606896 38.11458891 13.22280736 36.578125 13.21020508 C32.05151931 13.1659038 27.52597717 13.08581221 23 13 C21.74010254 12.97921387 20.48020508 12.95842773 19.18212891 12.93701172 C15.95364844 12.87577175 12.72741244 12.78976509 9.5 12.6875 C8.55278076 12.66526367 7.60556152 12.64302734 6.62963867 12.62011719 C5.77217041 12.5843457 4.91470215 12.54857422 4.03125 12.51171875 C3.29455078 12.48553467 2.55785156 12.45935059 1.79882812 12.43237305 C0 12 0 12 -2 9 C-2.33957563 4.92509248 -2.31332486 3.46998729 0 0 Z M1 2 C-1.36980013 4.95377498 -1.36980013 4.95377498 -1 9 C2.55140657 10.77570328 6.64438198 10.40080832 10.5625 10.5625 C11.54871338 10.6049585 12.53492676 10.64741699 13.55102539 10.69116211 C28.0256357 11.23885007 42.51796133 11.0862579 57 11 C57 10.01 57 9.02 57 8 C57.66 8 58.32 8 59 8 C59 6.35 59 4.7 59 3 C56.42268937 1.71134468 54.55000262 1.85888547 51.6640625 1.83886719 C49.992229 1.82445587 49.992229 1.82445587 48.28662109 1.80975342 C47.07828613 1.80550354 45.86995117 1.80125366 44.625 1.796875 C43.38959473 1.79117493 42.15418945 1.78547485 40.88134766 1.77960205 C38.26530822 1.7701434 35.64925683 1.76361465 33.03320312 1.75976562 C30.34426423 1.75536394 27.65564317 1.74140973 24.96679688 1.71875 C21.10276456 1.688429 17.23913771 1.67773395 13.375 1.671875 C12.16666504 1.6595282 10.95833008 1.6471814 9.71337891 1.63446045 C8.04154541 1.6389621 8.04154541 1.6389621 6.3359375 1.64355469 C5.35157715 1.63990906 4.3672168 1.63626343 3.35302734 1.63250732 C2.57652832 1.75377991 1.8000293 1.87505249 1 2 Z " fill="#2F9FCE" transform="translate(73,43)"/>
<path d="M0 0 C2.97 0 5.94 0 9 0 C9.0825 1.464375 9.165 2.92875 9.25 4.4375 C9.70577991 9.2197877 11.0164514 12.91534799 13.16015625 17.1875 C14 19 14 19 14 21 C0.8 21 -12.4 21 -26 21 C-26 20.67 -26 20.34 -26 20 C-14.12 20 -2.24 20 10 20 C9.34 18.35 8.68 16.7 8 15 C4.7 15 1.4 15 -2 15 C-1.67 14.01 -1.34 13.02 -1 12 C-8.92 12 -16.84 12 -25 12 C-25.66 13.98 -26.32 15.96 -27 18 C-27.66 17.67 -28.32 17.34 -29 17 C-28.25 12.25 -28.25 12.25 -26 10 C-23.29443359 9.68115234 -23.29443359 9.68115234 -19.8984375 9.5859375 C-18.68671875 9.54726562 -17.475 9.50859375 -16.2265625 9.46875 C-14.95554687 9.4378125 -13.68453125 9.406875 -12.375 9.375 C-11.09625 9.33632812 -9.8175 9.29765625 -8.5 9.2578125 C-5.33347983 9.16328951 -2.1669696 9.07773643 1 9 C0.67 6.03 0.34 3.06 0 0 Z " fill="#0B9DDD" transform="translate(99,75)"/>
<path d="M0 0 C0.99 0 1.98 0 3 0 C3 1.98 3 3.96 3 6 C4.32 6.33 5.64 6.66 7 7 C6.16090449 17.89111717 6.16090449 17.89111717 3.34375 20.58203125 C1.60513237 21.47627925 -0.19625116 22.24570503 -2 23 C-2.33 23.99 -2.66 24.98 -3 26 C-4.32 25.67 -5.64 25.34 -7 25 C-7 24.01 -7 23.02 -7 22 C-8.32 21.67 -9.64 21.34 -11 21 C-10 18.125 -10 18.125 -8 15 C-5.31093987 13.85436491 -2.91803296 13.47836606 0 13 C-0.48484276 8.35413108 -0.48484276 8.35413108 -2 4 C-1.0625 1.875 -1.0625 1.875 0 0 Z " fill="#06A8ED" transform="translate(191,88)"/>
<path d="M0 0 C0.66 0 1.32 0 2 0 C1.34 4.62 0.68 9.24 0 14 C0.66 14 1.32 14 2 14 C2.22429687 14.62390625 2.44859375 15.2478125 2.6796875 15.890625 C4.45273948 18.72331159 5.93696227 18.93255443 9.125 19.75 C10.03507813 19.99234375 10.94515625 20.2346875 11.8828125 20.484375 C12.58148438 20.65453125 13.28015625 20.8246875 14 21 C14 21.66 14 22.32 14 23 C16.88437779 21.70700306 18.87219421 20.34058637 21 18 C19.68 17.67 18.36 17.34 17 17 C17 16.34 17 15.68 17 15 C16.071875 15.061875 15.14375 15.12375 14.1875 15.1875 C11 15 11 15 9.28125 13.78125 C7.56466326 11.39477575 7.85653871 10.17262084 8.3125 7.3125 C8.43238281 6.50425781 8.55226562 5.69601563 8.67578125 4.86328125 C8.78277344 4.24839844 8.88976562 3.63351563 9 3 C10.98 3 12.96 3 15 3 C14.319375 3.556875 13.63875 4.11375 12.9375 4.6875 C12.298125 5.450625 11.65875 6.21375 11 7 C11.33 8.65 11.66 10.3 12 12 C18.93 13.98 25.86 15.96 33 18 C33 18.33 33 18.66 33 19 C26.375 21.125 26.375 21.125 23 20 C22.67 21.65 22.34 23.3 22 25 C23.65 25 25.3 25 27 25 C26.67 25.99 26.34 26.98 26 28 C22.59838801 26.9342724 19.20499996 25.84435483 15.8125 24.75 C14.85279297 24.44964844 13.89308594 24.14929688 12.90429688 23.83984375 C7.1639905 21.97275448 2.43586464 20.24781952 -1.3125 15.25 C-2.9436145 9.9118071 -2.4692288 4.93845761 0 0 Z " fill="#18A5DF" transform="translate(159,66)"/>
<path d="M0 0 C4.03817651 -0.28572004 7.96870209 -0.4286306 12 0 C14.1875 2.125 14.1875 2.125 16 5 C18.32618435 6.70886654 20.72568715 8.23478486 23.171875 9.765625 C23.77515625 10.17296875 24.3784375 10.5803125 25 11 C25 11.33 25 11.66 25 12 C19.06 12 13.12 12 7 12 C6.34 10.68 5.68 9.36 5 8 C4.15703448 6.93224367 3.28241945 5.88855038 2.375 4.875 C0 2 0 2 0 0 Z " fill="#1F3F65" transform="translate(108,104)"/>
<path d="M0 0 C26.07 0.33 52.14 0.66 79 1 C79 1.33 79 1.66 79 2 C69.41895262 2.90024677 59.90738429 3.13445213 50.29296875 3.09765625 C48.83181304 3.09578536 47.37065669 3.09436464 45.90950012 3.09336853 C42.11040437 3.08959613 38.31134838 3.07981262 34.51226807 3.06866455 C30.61690814 3.05833529 26.72154162 3.05384654 22.82617188 3.04882812 C15.21743002 3.0381842 7.60872063 3.02117334 0 3 C0 2.01 0 1.02 0 0 Z " fill="#244565" transform="translate(67,14)"/>
<path d="M0 0 C3.5625 0.3125 3.5625 0.3125 5.5 1.4375 C7.06672245 4.20230433 6.95226435 6.19438517 6.5625 9.3125 C5.5 11.1875 5.5 11.1875 3.5625 12.3125 C0.0625 12.75 0.0625 12.75 -3.4375 12.3125 C-5.4375 10.6875 -5.4375 10.6875 -6.4375 8.3125 C-6.12371717 3.0827861 -5.61102633 0.5100933 0 0 Z " fill="#1AA5DE" transform="translate(51.4375,121.6875)"/>
<path d="M0 0 C1.11052734 -0.02900391 2.22105469 -0.05800781 3.36523438 -0.08789062 C4.42935547 -0.09626953 5.49347656 -0.10464844 6.58984375 -0.11328125 C7.56687256 -0.12786377 8.54390137 -0.14244629 9.55053711 -0.1574707 C12.0625 0.3125 12.0625 0.3125 13.87719727 2.17895508 C15.35694503 4.84250106 15.60098278 6.31238168 15.0625 9.3125 C10.51319537 13.66125524 5.03089601 13.08023931 -0.9375 13.3125 C-2.030625 13.36535156 -3.12375 13.41820313 -4.25 13.47265625 C-12.26418966 13.6985464 -12.26418966 13.6985464 -15.25390625 11.984375 C-16.9375 10.3125 -16.9375 10.3125 -17.375 7.3125 C-16.9375 4.3125 -16.9375 4.3125 -15.5625 2.5 C-10.96155116 -0.86223185 -5.4912572 0.04763959 0 0 Z M-14.9375 3.3125 C-14.6075 5.2925 -14.2775 7.2725 -13.9375 9.3125 C-12.9475 9.3125 -11.9575 9.3125 -10.9375 9.3125 C-10.9375 10.3025 -10.9375 11.2925 -10.9375 12.3125 C-7.52018208 12.2024083 -4.10394426 12.07182939 -0.6875 11.9375 C0.76462891 11.89109375 0.76462891 11.89109375 2.24609375 11.84375 C3.18066406 11.80507812 4.11523438 11.76640625 5.078125 11.7265625 C5.93696289 11.6951416 6.79580078 11.6637207 7.68066406 11.63134766 C10.1907028 11.29533796 11.88182328 10.57058272 14.0625 9.3125 C14.0625 7.9925 14.0625 6.6725 14.0625 5.3125 C13.0725 5.3125 12.0825 5.3125 11.0625 5.3125 C10.7325 4.3225 10.4025 3.3325 10.0625 2.3125 C6.27084926 2.2835663 2.47922673 2.26572399 -1.3125 2.25 C-2.93285156 2.23743164 -2.93285156 2.23743164 -4.5859375 2.22460938 C-5.6171875 2.22138672 -6.6484375 2.21816406 -7.7109375 2.21484375 C-8.66403809 2.20960693 -9.61713867 2.20437012 -10.59912109 2.19897461 C-12.96074406 2.15607401 -12.96074406 2.15607401 -14.9375 3.3125 Z " fill="#35A1CE" transform="translate(64.9375,102.6875)"/>
<path d="M0 0 C0.33 0.99 0.66 1.98 1 3 C0.67 3.66 0.34 4.32 0 5 C0.845625 4.96519531 1.69125 4.93039063 2.5625 4.89453125 C9.43972951 4.73041555 14.83672135 4.79983609 21 8 C22.39195915 12.17587745 20.82323219 14.13474776 19 18 C18.38253906 17.79503906 17.76507813 17.59007813 17.12890625 17.37890625 C11.37289724 15.54784707 6.02021684 14.48550136 0 14 C0 13.34 0 12.68 0 12 C4.62 12 9.24 12 14 12 C13.34 10.02 12.68 8.04 12 6 C7.71 6 3.42 6 -1 6 C-0.67 4.02 -0.34 2.04 0 0 Z " fill="#189FD8" transform="translate(174,55)"/>
<path d="M0 0 C3.60401481 -0.08701039 7.20776012 -0.14039388 10.8125 -0.1875 C12.34874023 -0.22520508 12.34874023 -0.22520508 13.91601562 -0.26367188 C15.39038086 -0.27817383 15.39038086 -0.27817383 16.89453125 -0.29296875 C18.25348511 -0.31653442 18.25348511 -0.31653442 19.63989258 -0.34057617 C22 0 22 0 23.79174805 1.33081055 C25.6851041 3.94646529 25.45566142 5.87546452 25 9 C22.89374132 11.04901687 21.54363677 11.92226596 18.61816406 12.34057617 C17.75932617 12.32486572 16.90048828 12.30915527 16.015625 12.29296875 C15.08105469 12.28330078 14.14648438 12.27363281 13.18359375 12.26367188 C12.21550781 12.23853516 11.24742188 12.21339844 10.25 12.1875 C9.26644531 12.17396484 8.28289063 12.16042969 7.26953125 12.14648438 C4.84579585 12.11118726 2.42317855 12.06188054 0 12 C1.32 11.67 2.64 11.34 4 11 C4 10.01 4 9.02 4 8 C4.66 8 5.32 8 6 8 C6 8.66 6 9.32 6 10 C10.02992782 9.44687265 14.02022924 8.8441938 18 8 C18.33 5.69 18.66 3.38 19 1 C12.73 1 6.46 1 0 1 C0 0.67 0 0.34 0 0 Z " fill="#20A1D4" transform="translate(3,64)"/>
<path d="M0 0 C0.97195312 -0.020625 1.94390625 -0.04125 2.9453125 -0.0625 C3.87859375 -0.06765625 4.811875 -0.0728125 5.7734375 -0.078125 C6.63114746 -0.0874707 7.48885742 -0.09681641 8.37255859 -0.10644531 C10.625 0.25 10.625 0.25 12.41650391 1.57128906 C14.21775284 4.07338758 13.82437878 6.25931824 13.625 9.25 C12.635 9.745 12.635 9.745 11.625 10.25 C11.480625 9.115625 11.33625 7.98125 11.1875 6.8125 C11.01328522 3.44222799 11.01328522 3.44222799 9.625 2.25 C7.09903741 2.01346477 4.59392793 1.82826308 2.0625 1.6875 C1.35158203 1.64431641 0.64066406 1.60113281 -0.09179688 1.55664062 C-1.85261912 1.45028223 -3.6137832 1.34961154 -5.375 1.25 C-5.045 2.57 -4.715 3.89 -4.375 5.25 C-5.365 5.58 -6.355 5.91 -7.375 6.25 C-6.715 7.57 -6.055 8.89 -5.375 10.25 C-6.365 10.58 -7.355 10.91 -8.375 11.25 C-2.105 11.25 4.165 11.25 10.625 11.25 C10.625 11.58 10.625 11.91 10.625 12.25 C7.18794295 12.39505175 3.75166967 12.48398014 0.3125 12.5625 C-0.66396484 12.60439453 -1.64042969 12.64628906 -2.64648438 12.68945312 C-5.3089891 12.73520063 -7.75362379 12.7223668 -10.375 12.25 C-12.58984375 9.93359375 -12.58984375 9.93359375 -13.375 7.25 C-11.39377302 -1.33531691 -7.86373416 0.04138807 0 0 Z " fill="#1DA9E0" transform="translate(27.375,103.75)"/>
<path d="M0 0 C1.49756836 -0.04350586 1.49756836 -0.04350586 3.02539062 -0.08789062 C7.54387923 -0.12702477 10.3848712 -0.14600417 14.3671875 2.12890625 C16.1875 4.3125 16.1875 4.3125 16.5 7.5625 C16.396875 8.47 16.29375 9.3775 16.1875 10.3125 C15.1975 10.8075 15.1975 10.8075 14.1875 11.3125 C13.5275 8.6725 12.8675 6.0325 12.1875 3.3125 C0.8025 2.8175 0.8025 2.8175 -10.8125 2.3125 C-10.8125 2.9725 -10.8125 3.6325 -10.8125 4.3125 C-11.4725 4.3125 -12.1325 4.3125 -12.8125 4.3125 C-12.21066251 6.33295442 -11.53943904 8.33361039 -10.8125 10.3125 C-8.35129159 11.54310421 -6.55473134 11.5182723 -3.8046875 11.62890625 C-2.81855469 11.67080078 -1.83242188 11.71269531 -0.81640625 11.75585938 C0.73240234 11.81483398 0.73240234 11.81483398 2.3125 11.875 C3.87291016 11.93977539 3.87291016 11.93977539 5.46484375 12.00585938 C8.03892528 12.1121288 10.61310508 12.21416583 13.1875 12.3125 C13.1875 12.6425 13.1875 12.9725 13.1875 13.3125 C9.08339245 13.37046132 4.97938984 13.40608313 0.875 13.4375 C-0.29224609 13.45425781 -1.45949219 13.47101562 -2.66210938 13.48828125 C-4.33950195 13.49794922 -4.33950195 13.49794922 -6.05078125 13.5078125 C-7.5982605 13.52352295 -7.5982605 13.52352295 -9.17700195 13.53955078 C-11.8125 13.3125 -11.8125 13.3125 -14.8125 11.3125 C-15.6875 9 -15.6875 9 -15.8125 6.3125 C-12.26697641 -1.11621609 -7.43587619 0.07117941 0 0 Z " fill="#2D9FCC" transform="translate(38.8125,42.6875)"/>
<path d="M0 0 C1.875 1.125 1.875 1.125 3 3 C3.39365568 6.14924548 3.52854531 8.11909116 1.875 10.875 C-0.88090884 12.52854531 -2.85075452 12.39365568 -6 12 C-7.875 10.875 -7.875 10.875 -9 9 C-9.39365568 5.85075452 -9.52854531 3.88090884 -7.875 1.125 C-5.11909116 -0.52854531 -3.14924548 -0.39365568 0 0 Z " fill="#1C9ED7" transform="translate(50,24)"/>
<path d="M0 0 C19.14 0.66 38.28 1.32 58 2 C58 2.66 58 3.32 58 4 C38.97013805 4.10957047 20.0073962 4.08392483 1 3 C0.67 2.01 0.34 1.02 0 0 Z " fill="#1E9DD4" transform="translate(72,52)"/>
<path d="M0 0 C-7.3486992 5.5115244 -15.18531674 7.08515983 -24 9 C-23.47731534 6.23723823 -22.89130413 3.6739124 -22 1 C-21.38253906 0.93941406 -20.76507813 0.87882812 -20.12890625 0.81640625 C-18.85853516 0.69072266 -18.85853516 0.69072266 -17.5625 0.5625 C-16.655 0.47355469 -15.7475 0.38460937 -14.8125 0.29296875 C-11.50387577 -0.05167961 -8.2070024 -0.47129187 -4.91015625 -0.9140625 C-3 -1 -3 -1 0 0 Z " fill="#0F528F" transform="translate(186,118)"/>
<path d="M0 0 C2.4375 2.125 2.4375 2.125 4 5 C3.25 8.3125 3.25 8.3125 2 11 C-4.40096618 12.32850242 -4.40096618 12.32850242 -6.9375 10.9375 C-8.47555213 8.13281671 -8.39310741 6.14485925 -8 3 C-5.92056153 -0.2833239 -3.73946039 -0.72965081 0 0 Z " fill="#24A2CE" transform="translate(54,84)"/>
<path d="M0 0 C0.66 0 1.32 0 2 0 C1.34 4.62 0.68 9.24 0 14 C0.66 14 1.32 14 2 14 C2.22429687 14.62390625 2.44859375 15.2478125 2.6796875 15.890625 C4.45273948 18.72331159 5.93696227 18.93255443 9.125 19.75 C10.03507813 19.99234375 10.94515625 20.2346875 11.8828125 20.484375 C12.58148438 20.65453125 13.28015625 20.8246875 14 21 C14 21.66 14 22.32 14 23 C16.31 23 18.62 23 21 23 C21 22.34 21 21.68 21 21 C21.66 21.33 22.32 21.66 23 22 C22.67 22.99 22.34 23.98 22 25 C23.65 25 25.3 25 27 25 C26.67 25.99 26.34 26.98 26 28 C22.59838801 26.9342724 19.20499996 25.84435483 15.8125 24.75 C14.85279297 24.44964844 13.89308594 24.14929688 12.90429688 23.83984375 C7.1639905 21.97275448 2.43586464 20.24781952 -1.3125 15.25 C-2.9436145 9.9118071 -2.4692288 4.93845761 0 0 Z " fill="#299EC7" transform="translate(159,66)"/>
<path d="M0 0 C2.97 0 5.94 0 9 0 C9 3.3 9 6.6 9 10 C6.69 10 4.38 10 2 10 C0 3.375 0 3.375 0 0 Z " fill="#0F4574" transform="translate(99,75)"/>
<path d="M0 0 C0.97742804 0.96010653 1.9564062 1.91863966 2.9375 2.875 C3.9584375 3.926875 3.9584375 3.926875 5 5 C-0.67177385 5.45374191 -3.5975268 4.65083143 -8 1 C-8 0.34 -8 -0.32 -8 -1 C-8.99 -1.33 -9.98 -1.66 -11 -2 C-11 -2.66 -11 -3.32 -11 -4 C-11.99 -3.67 -12.98 -3.34 -14 -3 C-14.66 -3.66 -15.32 -4.32 -16 -5 C-8.42799364 -6.88870907 -5.21290486 -5.63976804 0 0 Z " fill="#163C69" transform="translate(126,110)"/>
<path d="M0 0 C0.66 0 1.32 0 2 0 C2 0.66 2 1.32 2 2 C2.61875 2.12375 3.2375 2.2475 3.875 2.375 C6 3 6 3 8 5 C8.88477255 7.75909336 9.21742427 10.49878271 9.5 13.375 C9.74741237 15.87563215 10.05625402 18.2950211 10.52734375 20.765625 C11.09775637 24.66894441 11.10877256 28.43827304 11.0625 32.375 C11.05798828 33.11105469 11.05347656 33.84710938 11.04882812 34.60546875 C11.03715142 36.40368158 11.01922011 38.20185197 11 40 C10.67 40 10.34 40 10 40 C9.97421875 39.09121094 9.9484375 38.18242188 9.921875 37.24609375 C9.31952869 23.89864701 6.74066263 11.74090827 0 0 Z " fill="#1E3A5F" transform="translate(206,42)"/>
<path d="M0 0 C0 3.69332106 -0.76639131 4.41934864 -3.1875 7.125 C-7.737659 11.5221448 -11.54760703 11.95051238 -17.72265625 12.05859375 C-18.80417969 12.03925781 -19.88570312 12.01992187 -21 12 C-22.00933594 12.01160156 -23.01867187 12.02320312 -24.05859375 12.03515625 C-26.37471 12.05815315 -28.68443702 12.04704304 -31 12 C-28.3139714 10.20931427 -26.3373411 9.33944209 -23.3125 8.375 C-22.50425781 8.11460938 -21.69601563 7.85421875 -20.86328125 7.5859375 C-20.24839844 7.39257812 -19.63351563 7.19921875 -19 7 C-19 7.66 -19 8.32 -19 9 C-17.00045254 9.04254356 -14.99958364 9.04080783 -13 9 C-12.67 8.67 -12.34 8.34 -12 8 C-10.33382885 7.95936168 -8.66611905 7.957279 -7 8 C-6.95875 7.236875 -6.9175 6.47375 -6.875 5.6875 C-6 3 -6 3 -2.9375 1.1875 C-1.968125 0.795625 -0.99875 0.40375 0 0 Z " fill="#1583BD" transform="translate(195,107)"/>
<path d="M0 0 C-0.96421875 0.06058594 -1.9284375 0.12117188 -2.921875 0.18359375 C-4.18515625 0.26738281 -5.4484375 0.35117188 -6.75 0.4375 C-8.00296875 0.51871094 -9.2559375 0.59992188 -10.546875 0.68359375 C-13.20113107 0.92680047 -15.45193196 1.31707185 -18 2 C-20 2 -22 2 -24 2 C-26.26566343 2.43941523 -26.26566343 2.43941523 -28 3 C-27.34 5.31 -26.68 7.62 -26 10 C-26.99 9.67 -27.98 9.34 -29 9 C-29.75 6.25 -29.75 6.25 -30 3 C-27.99577107 0.37883463 -26.72678057 -0.8332626 -23.48217773 -1.57763672 C-22.55864502 -1.61131348 -21.6351123 -1.64499023 -20.68359375 -1.6796875 C-19.67232422 -1.7209375 -18.66105469 -1.7621875 -17.61914062 -1.8046875 C-16.56919922 -1.82789063 -15.51925781 -1.85109375 -14.4375 -1.875 C-13.38369141 -1.92140625 -12.32988281 -1.9678125 -11.24414062 -2.015625 C-3.41323376 -2.27548917 -3.41323376 -2.27548917 0 0 Z " fill="#27A4D2" transform="translate(64,65)"/>
<path d="M0 0 C0.99 0.495 0.99 0.495 2 1 C1.67 2.65 1.34 4.3 1 6 C3.31 6 5.62 6 8 6 C8 6.66 8 7.32 8 8 C7.01 8.33 6.02 8.66 5 9 C11.93 9.33 18.86 9.66 26 10 C26 10.33 26 10.66 26 11 C21.85418113 11.02886751 17.70838784 11.04675327 13.5625 11.0625 C11.78649414 11.07506836 11.78649414 11.07506836 9.97460938 11.08789062 C8.84990234 11.09111328 7.72519531 11.09433594 6.56640625 11.09765625 C5.00321655 11.10551147 5.00321655 11.10551147 3.40844727 11.11352539 C1 11 1 11 0 10 C-0.07205511 8.31391034 -0.08386068 6.62499341 -0.0625 4.9375 C-0.05347656 4.01839844 -0.04445312 3.09929687 -0.03515625 2.15234375 C-0.02355469 1.44207031 -0.01195312 0.73179688 0 0 Z " fill="#203D5D" transform="translate(63,116)"/>
<path d="M0 0 C-3.02422371 2.94667952 -5.41432206 3.34534737 -9.5859375 3.3125 C-10.25882813 3.291875 -10.93171875 3.27125 -11.625 3.25 C-12.305625 3.24484375 -12.98625 3.2396875 -13.6875 3.234375 C-18.68941327 3.15529337 -18.68941327 3.15529337 -21 2 C-20.67 2.99 -20.34 3.98 -20 5 C-20.99 5.33 -21.98 5.66 -23 6 C-22.67 4.35 -22.34 2.7 -22 1 C-21.38253906 0.93941406 -20.76507813 0.87882812 -20.12890625 0.81640625 C-18.85853516 0.69072266 -18.85853516 0.69072266 -17.5625 0.5625 C-16.655 0.47355469 -15.7475 0.38460937 -14.8125 0.29296875 C-11.50387577 -0.05167961 -8.2070024 -0.47129187 -4.91015625 -0.9140625 C-3 -1 -3 -1 0 0 Z " fill="#0961A3" transform="translate(186,118)"/>
<path d="M0 0 C0.66 0 1.32 0 2 0 C2.33 1.65 2.66 3.3 3 5 C3.99 5 4.98 5 6 5 C6 5.99 6 6.98 6 8 C9.41714219 7.6925646 12.83360937 7.37816912 16.25 7.0625 C17.70212891 6.93198242 17.70212891 6.93198242 19.18359375 6.79882812 C20.11816406 6.71181641 21.05273438 6.62480469 22.015625 6.53515625 C23.30388184 6.41732788 23.30388184 6.41732788 24.61816406 6.29711914 C26.81641589 6.02290097 28.86718545 5.58933034 31 5 C29.24996461 7.19785589 28.29736427 7.939038 25.50390625 8.51171875 C22.33574327 8.7010512 19.17158336 8.87787369 16 9 C14.90558594 9.05285156 13.81117187 9.10570313 12.68359375 9.16015625 C4.6825737 9.38595191 4.6825737 9.38595191 1.671875 7.68359375 C0 6 0 6 -0.25 2.8125 C-0.1675 1.884375 -0.085 0.95625 0 0 Z " fill="#209FD1" transform="translate(48,107)"/>
<path d="M0 0 C0.97195312 -0.020625 1.94390625 -0.04125 2.9453125 -0.0625 C3.87859375 -0.06765625 4.811875 -0.0728125 5.7734375 -0.078125 C6.63114746 -0.0874707 7.48885742 -0.09681641 8.37255859 -0.10644531 C10.625 0.25 10.625 0.25 12.41650391 1.57128906 C14.21775284 4.07338758 13.82437878 6.25931824 13.625 9.25 C12.635 9.745 12.635 9.745 11.625 10.25 C11.480625 9.115625 11.33625 7.98125 11.1875 6.8125 C11.01328522 3.44222799 11.01328522 3.44222799 9.625 2.25 C-1.13678685 1.10200248 -1.13678685 1.10200248 -10.875 4.75 C-11.7 5.575 -12.525 6.4 -13.375 7.25 C-10.68171124 -1.18897144 -8.37148929 0.04406047 0 0 Z " fill="#2EA1CD" transform="translate(27.375,103.75)"/>
<path d="M0 0 C2 1 2 1 2.75 2.8125 C3 5 3 5 2.0546875 6.80859375 C0.82522983 9.36313358 0.59740051 11.43292688 0.375 14.25 C0.30023438 15.14203125 0.22546875 16.0340625 0.1484375 16.953125 C0.09945312 17.62859375 0.05046875 18.3040625 0 19 C-1.65 19.33 -3.3 19.66 -5 20 C-5.33 19.34 -5.66 18.68 -6 18 C-5.28470721 15.86866012 -4.47778891 13.76764532 -3.625 11.6875 C-2.03342119 7.7885765 -0.67197144 4.16466018 0 0 Z " fill="#173656" transform="translate(215,84)"/>
<path d="M0 0 C1.65 0.66 3.3 1.32 5 2 C4.01 4.97 3.02 7.94 2 11 C0.535625 10.525625 -0.92875 10.05125 -2.4375 9.5625 C-7.31912648 8.08617359 -11.92387815 7.40936467 -17 7 C-17 6.34 -17 5.68 -17 5 C-15.39620659 4.94583812 -13.79188594 4.90713362 -12.1875 4.875 C-11.29417969 4.85179688 -10.40085938 4.82859375 -9.48046875 4.8046875 C-7 5 -7 5 -4 7 C-1.37468476 7.16713569 -1.37468476 7.16713569 1 7 C1.15149298 3.37114676 1.15149298 3.37114676 0 0 Z " fill="#27A0CB" transform="translate(191,62)"/>
<path d="M0 0 C2 3 2 3 4 9 C-9.2 9 -22.4 9 -36 9 C-36 8.67 -36 8.34 -36 8 C-24.12 8 -12.24 8 0 8 C0 5.36 0 2.72 0 0 Z " fill="#32A1D2" transform="translate(109,87)"/>
<path d="M0 0 C3.63554272 1.91344354 5.52924666 3.14095912 7 7 C7.265625 9.65625 7.265625 9.65625 7.25 12.5 C7.25515625 13.4384375 7.2603125 14.376875 7.265625 15.34375 C6.99595232 18.04047676 6.3732259 19.68949293 5 22 C4.67 22 4.34 22 4 22 C4.14168137 20.56208484 4.28851043 19.1246763 4.4375 17.6875 C4.51871094 16.88699219 4.59992188 16.08648437 4.68359375 15.26171875 C5 13 5 13 6 10 C4.68 9.67 3.36 9.34 2 9 C2 6.69 2 4.38 2 2 C1.34 2 0.68 2 0 2 C0 1.34 0 0.68 0 0 Z " fill="#1D9DD5" transform="translate(192,85)"/>
<path d="M0 0 C0.99 0 1.98 0 3 0 C2.67 5.94 2.34 11.88 2 18 C3.65 18.33 5.3 18.66 7 19 C7 19.33 7 19.66 7 20 C4.69 20 2.38 20 0 20 C0 13.4 0 6.8 0 0 Z " fill="#193A5C" transform="translate(63,76)"/>
<path d="M0 0 C0.66 0 1.32 0 2 0 C2 0.66 2 1.32 2 2 C6.87871301 1.34137666 6.87871301 1.34137666 11.6875 0.3125 C14.46180464 -0.06240603 15.6673544 0.53129721 18 2 C17.67 2.66 17.34 3.32 17 4 C10.07 4 3.14 4 -4 4 C-2.68 3.67 -1.36 3.34 0 3 C0 2.01 0 1.02 0 0 Z " fill="#1AA6DB" transform="translate(7,72)"/>
<path d="M0 0 C2.4375 0.1875 2.4375 0.1875 3.4375 1.1875 C3.47830783 3.18708364 3.48004356 5.18795254 3.4375 7.1875 C1.1275 7.5175 -1.1825 7.8475 -3.5625 8.1875 C-4.1875 5.3125 -4.1875 5.3125 -4.5625 2.1875 C-2.5625 0.1875 -2.5625 0.1875 0 0 Z " fill="#03A1E5" transform="translate(51.5625,85.8125)"/>
<path d="M0 0 C7.59 0 15.18 0 23 0 C22.67 1.32 22.34 2.64 22 4 C21.01 3.67 20.02 3.34 19 3 C17.59335074 2.85507877 16.1818867 2.75371069 14.76953125 2.68359375 C13.56586914 2.62075195 13.56586914 2.62075195 12.33789062 2.55664062 C11.50451172 2.51732422 10.67113281 2.47800781 9.8125 2.4375 C8.96751953 2.39431641 8.12253906 2.35113281 7.25195312 2.30664062 C5.16815567 2.20068482 3.08409897 2.0998498 1 2 C0.67 1.34 0.34 0.68 0 0 Z " fill="#074672" transform="translate(73,55)"/>
<path d="M0 0 C2.1875 0.3125 2.1875 0.3125 4 1 C4 1.66 4 2.32 4 3 C5.98 3 7.96 3 10 3 C10 3.66 10 4.32 10 5 C9.09636719 5.04898438 8.19273438 5.09796875 7.26171875 5.1484375 C6.08222656 5.22320312 4.90273437 5.29796875 3.6875 5.375 C1.92986328 5.47941406 1.92986328 5.47941406 0.13671875 5.5859375 C-3.15699887 5.78613747 -3.15699887 5.78613747 -6 8 C-6.33 7.01 -6.66 6.02 -7 5 C-6.401875 4.731875 -5.80375 4.46375 -5.1875 4.1875 C-2.94489213 3.1305255 -2.94489213 3.1305255 -1.5 1.3125 C-0.7575 0.6628125 -0.7575 0.6628125 0 0 Z " fill="#0E477A" transform="translate(96,111)"/>
<path d="M0 0 C2.64 0.66 5.28 1.32 8 2 C8 3.32 8 4.64 8 6 C8.99 6.33 9.98 6.66 11 7 C9 9 9 9 6.0625 9.125 C3 8 3 8 1.94140625 6.14453125 C1.19619529 4.12996573 0.5900952 2.06533321 0 0 Z " fill="#20456D" transform="translate(154,24)"/>
<path d="M0 0 C0.99773437 0.02320312 1.99546875 0.04640625 3.0234375 0.0703125 C4.52777344 0.09738281 4.52777344 0.09738281 6.0625 0.125 C6.83335938 0.14820312 7.60421875 0.17140625 8.3984375 0.1953125 C8.3984375 0.5253125 8.3984375 0.8553125 8.3984375 1.1953125 C3.9434375 1.6903125 3.9434375 1.6903125 -0.6015625 2.1953125 C-0.2715625 3.5153125 0.0584375 4.8353125 0.3984375 6.1953125 C-0.5915625 6.1953125 -1.5815625 6.1953125 -2.6015625 6.1953125 C-2.2715625 7.1853125 -1.9415625 8.1753125 -1.6015625 9.1953125 C-2.9215625 8.5353125 -4.2415625 7.8753125 -5.6015625 7.1953125 C-4.51902891 0.33926643 -4.51902891 0.33926643 0 0 Z " fill="#14A6E4" transform="translate(95.6015625,115.8046875)"/>
<path d="M0 0 C0 0.33 0 0.66 0 1 C-6.00087244 1.82650905 -11.95082054 2.2790899 -18 2.5625 C-18.87011719 2.60568359 -19.74023438 2.64886719 -20.63671875 2.69335938 C-22.75768219 2.79824218 -24.87882433 2.89950075 -27 3 C-27.66 4.98 -28.32 6.96 -29 9 C-29.66 8.67 -30.32 8.34 -31 8 C-30.25 3.25 -30.25 3.25 -28 1 C-25.14054085 0.68687741 -22.36808315 0.48539958 -19.5 0.375 C-18.68934082 0.33705322 -17.87868164 0.29910645 -17.04345703 0.26000977 C-11.35858294 0.00935695 -5.6903828 -0.09178037 0 0 Z " fill="#1A93D3" transform="translate(101,84)"/>
<path d="M0 0 C1.98 0 3.96 0 6 0 C5.319375 0.556875 4.63875 1.11375 3.9375 1.6875 C2.9784375 2.8321875 2.9784375 2.8321875 2 4 C2.33 5.65 2.66 7.3 3 9 C8.445 10.485 8.445 10.485 14 12 C14 12.33 14 12.66 14 13 C12.06166004 12.91284983 10.1242571 12.80467036 8.1875 12.6875 C7.10855469 12.62949219 6.02960938 12.57148437 4.91796875 12.51171875 C2 12 2 12 0.09375 10.75 C-1.3868386 8.38105824 -1.12237039 7.04032332 -0.6875 4.3125 C-0.56761719 3.50425781 -0.44773438 2.69601563 -0.32421875 1.86328125 C-0.21722656 1.24839844 -0.11023438 0.63351563 0 0 Z " fill="#27A4D2" transform="translate(168,69)"/>
<path d="M0 0 C1.4540625 0.0309375 1.4540625 0.0309375 2.9375 0.0625 C3.5625 2.375 3.5625 2.375 3.9375 5.0625 C2.9475 6.5475 2.9475 6.5475 1.9375 8.0625 C1.6075 7.0725 1.2775 6.0825 0.9375 5.0625 C-1.07758358 4.32926204 -1.07758358 4.32926204 -3.0625 4.0625 C-3.0625 4.7225 -3.0625 5.3825 -3.0625 6.0625 C-3.7225 6.0625 -4.3825 6.0625 -5.0625 6.0625 C-3.98897059 0.08140756 -3.98897059 0.08140756 0 0 Z " fill="#05A6EB" transform="translate(52.0625,122.9375)"/>
<path d="M0 0 C0.598125 0.45375 1.19625 0.9075 1.8125 1.375 C6.08400064 4.5608554 6.08400064 4.5608554 11.1875 5.125 C12.445625 5.08375 13.70375 5.0425 15 5 C15.33 5.66 15.66 6.32 16 7 C10.06 7 4.12 7 -2 7 C-1.34 6.67 -0.68 6.34 0 6 C-0.2784375 4.7934375 -0.2784375 4.7934375 -0.5625 3.5625 C-0.706875 2.716875 -0.85125 1.87125 -1 1 C-0.67 0.67 -0.34 0.34 0 0 Z " fill="#0C4675" transform="translate(117,109)"/>
<path d="M0 0 C0.78375 0.185625 1.5675 0.37125 2.375 0.5625 C4.97089775 1.25962266 4.97089775 1.25962266 7 0 C6.67 2.31 6.34 4.62 6 7 C3.625 7.1875 3.625 7.1875 1 7 C-1 4 -1 4 -0.625 1.8125 C-0.41875 1.214375 -0.2125 0.61625 0 0 Z " fill="#0CA8ED" transform="translate(44,28)"/>
<path d="M0 0 C0.66 0.99 1.32 1.98 2 3 C0.68 5.64 -0.64 8.28 -2 11 C-1.34 11 -0.68 11 0 11 C0 11.66 0 12.32 0 13 C-3.46153846 16 -3.46153846 16 -6 16 C-4.25192871 10.53262809 -2.34205919 5.24175152 0 0 Z " fill="#1C9FD1" transform="translate(166,49)"/>
<path d="M0 0 C0.99386719 0.10183594 1.98773438 0.20367187 3.01171875 0.30859375 C3.77097656 0.39238281 4.53023437 0.47617187 5.3125 0.5625 C5.3125 0.8925 5.3125 1.2225 5.3125 1.5625 C4.24 1.665625 3.1675 1.76875 2.0625 1.875 C-1.54570872 2.53650493 -3.05145023 3.13733421 -5.6875 5.5625 C-5.6875 4.9025 -5.6875 4.2425 -5.6875 3.5625 C-7.3375 3.2325 -8.9875 2.9025 -10.6875 2.5625 C-7.27994642 -0.84505358 -4.53278925 -0.47994239 0 0 Z " fill="#153358" transform="translate(87.6875,1.4375)"/>
<path d="M0 0 C1.32 0.66 2.64 1.32 4 2 C3.34 2.66 2.68 3.32 2 4 C2.36276645 6.82957829 3.09694764 9.29084291 4 12 C2.35 11.67 0.7 11.34 -1 11 C-1.02688151 9.35425434 -1.04634123 7.70838587 -1.0625 6.0625 C-1.07410156 5.14597656 -1.08570312 4.22945313 -1.09765625 3.28515625 C-1 1 -1 1 0 0 Z " fill="#0F4577" transform="translate(69,84)"/>
<path d="M0 0 C0.99 0.66 1.98 1.32 3 2 C3.39570119 5.0996593 3.49754211 7.12198451 1.9375 9.875 C-1.00227124 11.58196395 -3.67870803 11.18799766 -7 11 C-6.360625 10.896875 -5.72125 10.79375 -5.0625 10.6875 C-4.0415625 10.3471875 -4.0415625 10.3471875 -3 10 C-2.67 9.01 -2.34 8.02 -2 7 C-1.34 6.34 -0.68 5.68 0 5 C0.16687448 2.41645782 0.16687448 2.41645782 0 0 Z " fill="#209DCC" transform="translate(55,123)"/>
<path d="M0 0 C4.18423892 3.50897269 8.19588166 7.08060535 12 11 C9.69 11 7.38 11 5 11 C4.731875 10.236875 4.46375 9.47375 4.1875 8.6875 C3.19146475 5.99592628 3.19146475 5.99592628 1.375 4.375 C0.92125 3.92125 0.4675 3.4675 0 3 C0 2.01 0 1.02 0 0 Z " fill="#173351" transform="translate(119,104)"/>
<path d="M0 0 C0.80824219 0.10183594 1.61648437 0.20367187 2.44921875 0.30859375 C3.06410156 0.39238281 3.67898437 0.47617187 4.3125 0.5625 C3.3225 3.2025 2.3325 5.8425 1.3125 8.5625 C0.3125 5.5625 0.3125 5.5625 1.3125 2.5625 C0.384375 2.748125 -0.54375 2.93375 -1.5 3.125 C-4.6875 3.5625 -4.6875 3.5625 -7.6875 2.5625 C-7.6875 1.9025 -7.6875 1.2425 -7.6875 0.5625 C-4.59271121 -0.46909626 -3.16118607 -0.41232862 0 0 Z " fill="#279BC6" transform="translate(174.6875,46.4375)"/>
<path d="M0 0 C6.625 -0.125 6.625 -0.125 10 1 C10 1.66 10 2.32 10 3 C10.66 2.34 11.32 1.68 12 1 C12.99 1.33 13.98 1.66 15 2 C15.33 3.65 15.66 5.3 16 7 C10.72 5.02 5.44 3.04 0 1 C0 0.67 0 0.34 0 0 Z " fill="#1F4165" transform="translate(170,17)"/>
<path d="M0 0 C4.35535069 1.16142685 6.64619703 2.07699505 9 6 C8 7 8 7 5.4375 7.0625 C4.2309375 7.0315625 4.2309375 7.0315625 3 7 C3 6.34 3 5.68 3 5 C2.34 5 1.68 5 1 5 C0.67 3.35 0.34 1.7 0 0 Z " fill="#04A7E3" transform="translate(159,99)"/>
<path d="M0 0 C0.99 0 1.98 0 3 0 C3.33 2.31 3.66 4.62 4 7 C1.69 7 -0.62 7 -3 7 C-2.690625 6.401875 -2.38125 5.80375 -2.0625 5.1875 C-0.89790296 2.91043228 -0.89790296 2.91043228 0 0 Z " fill="#08A8F6" transform="translate(102,67)"/>
<path d="M0 0 C3.33855319 2.99318562 5.27398609 5.85756662 7 10 C7 11.32 7 12.64 7 14 C6.34 14 5.68 14 5 14 C1.73642541 9.78454948 0.94802218 5.11931979 0 0 Z " fill="#183558" transform="translate(234,9)"/>
<path d="M0 0 C0.99 0.33 1.98 0.66 3 1 C3 1.66 3 2.32 3 3 C3.99 3 4.98 3 6 3 C6 4.32 6 5.64 6 7 C4.68 7.33 3.36 7.66 2 8 C0.23537317 4.91190305 0 3.76687864 0 0 Z " fill="#039FE0" transform="translate(73,105)"/>
<path d="M0 0 C0.33 0.66 0.66 1.32 1 2 C1.66 2 2.32 2 3 2 C1.76075855 6.95696581 0.21422242 9.11658466 -4 12 C-4 11.01 -4 10.02 -4 9 C-3.34 8.67 -2.68 8.34 -2 8 C-1.62599214 5.67284 -1.29235267 3.33882138 -1 1 C-0.67 0.67 -0.34 0.34 0 0 Z " fill="#20385E" transform="translate(237,131)"/>
<path d="M0 0 C1.32 0 2.64 0 4 0 C4.33 1.98 4.66 3.96 5 6 C3.35 6.33 1.7 6.66 0 7 C0 4.69 0 2.38 0 0 Z " fill="#07ADF1" transform="translate(150,27)"/>
<path d="M0 0 C1.99097846 2.98646769 2.94124926 5.59687262 4 9 C0.37 9 -3.26 9 -7 9 C-7 8.67 -7 8.34 -7 8 C-4.69 8 -2.38 8 0 8 C0 5.36 0 2.72 0 0 Z " fill="#2D9DC9" transform="translate(109,87)"/>
<path d="M0 0 C1.44197868 2.88395737 1.58833581 5.82430479 2 9 C3.65 9.33 5.3 9.66 7 10 C7 10.33 7 10.66 7 11 C1.6 11.36 1.6 11.36 -0.875 9.875 C-2.50531294 7.15781176 -2.33015665 5.10347254 -2 2 C-1.34 1.34 -0.68 0.68 0 0 Z " fill="#35A0C8" transform="translate(43,25)"/>
<path d="M0 0 C3.63 0 7.26 0 11 0 C11 0.66 11 1.32 11 2 C8.36 2 5.72 2 3 2 C2.67 2.66 2.34 3.32 2 4 C1.34 2.68 0.68 1.36 0 0 Z " fill="#1F4871" transform="translate(77,103)"/>
<path d="M0 0 C0.66 0 1.32 0 2 0 C2 1.98 2 3.96 2 6 C2.66 6.33 3.32 6.66 4 7 C1.29120665 8.35439668 -1.00933268 8.06501451 -4 8 C-3.525625 7.608125 -3.05125 7.21625 -2.5625 6.8125 C-0.64820367 4.59191626 -0.38733012 2.86624291 0 0 Z " fill="#1EA4D0" transform="translate(187,94)"/>
<path d="M0 0 C0.33 0 0.66 0 1 0 C1.05429959 1.74965358 1.09292823 3.49979787 1.125 5.25 C1.14820313 6.22453125 1.17140625 7.1990625 1.1953125 8.203125 C0.99862781 11.0196498 0.44568916 12.60949036 -1 15 C-1.33 15 -1.66 15 -2 15 C-1.47462276 9.9697924 -0.89405214 4.98114761 0 0 Z " fill="#2D98C8" transform="translate(198,92)"/>
<path d="M0 0 C1.5 1.125 1.5 1.125 3 3 C3.1875 6.1875 3.1875 6.1875 3 9 C1.02 9.99 1.02 9.99 -1 11 C-1 9.68 -1 8.36 -1 7 C-0.34 7 0.32 7 1 7 C0.67 4.69 0.34 2.38 0 0 Z " fill="#2B9ECE" transform="translate(131,44)"/>
<path d="M0 0 C3.3125 -0.25 3.3125 -0.25 7 0 C8.9375 1.6875 8.9375 1.6875 10 4 C10.1875 6.75 10.1875 6.75 10 9 C9.67 7.68 9.34 6.36 9 5 C8.01 5 7.02 5 6 5 C5.34 4.01 4.68 3.02 4 2 C1.94996045 0.80767387 1.94996045 0.80767387 0 0 Z " fill="#2498C7" transform="translate(70,103)"/>
<path d="M0 0 C0 0.99 0 1.98 0 3 C-0.66 3 -1.32 3 -2 3 C-2.66 4.32 -3.32 5.64 -4 7 C-4.66 7 -5.32 7 -6 7 C-6.33 8.32 -6.66 9.64 -7 11 C-7.33 10.01 -7.66 9.02 -8 8 C-6.85546875 6.2109375 -6.85546875 6.2109375 -5.1875 4.375 C-4.64480469 3.76398437 -4.10210937 3.15296875 -3.54296875 2.5234375 C-2 1 -2 1 0 0 Z " fill="#1B3A58" transform="translate(76,4)"/>
<path d="M0 0 C0.33 1.32 0.66 2.64 1 4 C1.66 4 2.32 4 3 4 C3 4.99 3 5.98 3 7 C3.99 7.33 4.98 7.66 6 8 C5.01 8.495 5.01 8.495 4 9 C2.02 7.68 0.04 6.36 -2 5 C-1.34 3.35 -0.68 1.7 0 0 Z " fill="#279BC8" transform="translate(159,100)"/>
<path d="M0 0 C2.31 0.33 4.62 0.66 7 1 C6.34 2.32 5.68 3.64 5 5 C3.68 4.67 2.36 4.34 1 4 C1.33 3.67 1.66 3.34 2 3 C1.34 2.67 0.68 2.34 0 2 C0 1.34 0 0.68 0 0 Z " fill="#13AEE2" transform="translate(175,110)"/>
<path d="M0 0 C0.33 0 0.66 0 1 0 C1 3.3 1 6.6 1 10 C0.01 9.01 -0.98 8.02 -2 7 C-1.56521739 1.56521739 -1.56521739 1.56521739 0 0 Z " fill="#23A2D3" transform="translate(2,65)"/>
<path d="M0 0 C0.66 2.31 1.32 4.62 2 7 C0.35 7 -1.3 7 -3 7 C-3 5.02 -3 3.04 -3 1 C-1 0 -1 0 0 0 Z " fill="#0C4B81" transform="translate(71,47)"/>
<path d="M0 0 C-0.66 1.32 -1.32 2.64 -2 4 C-2.33 3.34 -2.66 2.68 -3 2 C-5.31 2.33 -7.62 2.66 -10 3 C-10 2.34 -10 1.68 -10 1 C-6.78548731 -0.60725635 -3.56387464 -0.05748185 0 0 Z " fill="#194E71" transform="translate(73,43)"/>
<path d="M0 0 C2.475 0.99 2.475 0.99 5 2 C5.33 4.31 5.66 6.62 6 9 C3 8 3 8 2.05078125 6.15234375 C1.80714844 5.42144531 1.56351563 4.69054687 1.3125 3.9375 C1.06113281 3.20402344 0.80976563 2.47054688 0.55078125 1.71484375 C0.36902344 1.14894531 0.18726563 0.58304688 0 0 Z " fill="#0B4776" transform="translate(154,24)"/>
<path d="M0 0 C1.32 1.32 2.64 2.64 4 4 C3.34 5.98 2.68 7.96 2 10 C1.34 9.67 0.68 9.34 0 9 C0 6.03 0 3.06 0 0 Z " fill="#299AC4" transform="translate(54,85)"/>
<path d="M0 0 C3.17218843 3.62535821 4.42902597 7.51150278 6 12 C4.125 11.375 4.125 11.375 2 10 C0.42687589 6.38181456 0 3.97906647 0 0 Z " fill="#1F3C59" transform="translate(138,74)"/>
<path d="M0 0 C2.35953094 2.35953094 2.49141413 3.77895617 3 7 C-2.875 3.25 -2.875 3.25 -4 1 C-2.125 0.375 -2.125 0.375 0 0 Z " fill="#1C385B" transform="translate(196,26)"/>
<path d="M0 0 C0 0.33 0 0.66 0 1 C-2.97 1 -5.94 1 -9 1 C-9 0.34 -9 -0.32 -9 -1 C-9.99 -1.33 -10.98 -1.66 -12 -2 C-7.06729471 -3.6442351 -4.45975807 -2.18615592 0 0 Z " fill="#173153" transform="translate(229,4)"/>
<path d="M0 0 C0 3 0 3 -1.25 4.75 C-3 6 -3 6 -5.1875 5.6875 C-5.785625 5.460625 -6.38375 5.23375 -7 5 C-5.49336217 1.98672434 -2.96833589 1.38943382 0 0 Z " fill="#26A0D0" transform="translate(195,107)"/>
<path d="M0 0 C1.65 0 3.3 0 5 0 C0.25 4.875 0.25 4.875 -2 6 C-1.34 4.02 -0.68 2.04 0 0 Z " fill="#1E9ECE" transform="translate(16,105)"/>
<path d="M0 0 C-3.26545761 1.88391785 -6.28111761 2.49287967 -10 3 C-10 2.01 -10 1.02 -10 0 C-6.30581799 -1.231394 -3.7943739 -0.64432764 0 0 Z " fill="#134578" transform="translate(172,124)"/>
<path d="M0 0 C2 2 2 2 2.046875 3.91015625 C1.94890625 4.62042969 1.8509375 5.33070312 1.75 6.0625 C1.61851562 7.13177734 1.61851562 7.13177734 1.484375 8.22265625 C1.24460938 9.10244141 1.24460938 9.10244141 1 10 C0.01 10.495 0.01 10.495 -1 11 C-1.66 10.34 -2.32 9.68 -3 9 C-2.34 9 -1.68 9 -1 9 C-0.67 6.03 -0.34 3.06 0 0 Z " fill="#0C3460" transform="translate(214,93)"/>
<path d="M0 0 C0.66 0 1.32 0 2 0 C1.34 3.96 0.68 7.92 0 12 C-0.33 12 -0.66 12 -1 12 C-1.02698189 10.37509046 -1.04638757 8.75005367 -1.0625 7.125 C-1.07410156 6.22007813 -1.08570313 5.31515625 -1.09765625 4.3828125 C-1 2 -1 2 0 0 Z " fill="#1FA1D2" transform="translate(159,66)"/>
<path d="M0 0 C2.475 0.99 2.475 0.99 5 2 C4.34 4.31 3.68 6.62 3 9 C2.67 9 2.34 9 2 9 C1.855625 7.88625 1.71125 6.7725 1.5625 5.625 C1.21627965 2.17857953 1.21627965 2.17857953 0 0 Z " fill="#2E97C1" transform="translate(191,62)"/>
<path d="M0 0 C4.29 0 8.58 0 13 0 C12.67 0.66 12.34 1.32 12 2 C8 2 4 2 0 2 C0 1.34 0 0.68 0 0 Z " fill="#26496A" transform="translate(120,60)"/>
<path d="M0 0 C0.66 0 1.32 0 2 0 C2 0.66 2 1.32 2 2 C3.32 2.33 4.64 2.66 6 3 C5.67 4.65 5.34 6.3 5 8 C2.74754119 5.31158141 1.11786042 3.35358125 0 0 Z " fill="#223A5D" transform="translate(206,42)"/>
<path d="M0 0 C0.66 0 1.32 0 2 0 C2 1.98 2 3.96 2 6 C0.68 6.33 -0.64 6.66 -2 7 C-1.34 4.69 -0.68 2.38 0 0 Z " fill="#1F4164" transform="translate(152,80)"/>
</svg>
